<?xml version="1.0" standalone="no"?><!DOCTYPE svg PUBLIC "-//W3C//DTD SVG 1.1//EN" "http://www.w3.org/Graphics/SVG/1.1/DTD/svg11.dtd"><svg t="1502019572744" class="icon" style="" viewBox="0 0 1449 1024" version="1.1" xmlns="http://www.w3.org/2000/svg" p-id="5992" xmlns:xlink="http://www.w3.org/1999/xlink" width="283.0078125" height="200"><defs><style type="text/css"></style></defs><path d="M853.878045 450.332941 591.900554 450.332941c-9.116748 0-16.513355-7.224593-16.513355-16.341341 0-9.116748 7.396607-16.341341 16.513355-16.341341l261.805476 0c8.944734 0 16.341341 7.224593 16.341341 16.341341C870.219385 443.108349 862.822778 450.332941 853.878045 450.332941L853.878045 450.332941zM896.881572 576.24727 548.725013 576.24727c-8.944734 0-16.341341-7.396607-16.341341-16.513355 0-8.944734 7.396607-16.341341 16.341341-16.341341l348.15656 0c9.116748 0 16.341341 7.396607 16.341341 16.341341C913.222913 568.850664 905.99832 576.24727 896.881572 576.24727L896.881572 576.24727zM722.803292 821.88342c-9.116748 0-16.341341-7.396607-16.341341-16.513355L706.461952 433.991601c0-9.116748 7.224593-16.341341 16.341341-16.341341 9.116748 0 16.341341 7.224593 16.341341 16.341341l0 371.378465C739.144633 814.486813 731.92004 821.88342 722.803292 821.88342L722.803292 821.88342zM722.459264 450.332941c-4.300353 0-8.428691-1.548127-11.69696-4.816395l-143.287754-143.459768c-6.536536-6.364522-6.536536-16.685369 0-23.221905 6.364522-6.364522 16.857383-6.364522 23.221905 0l143.459768 143.459768c6.364522 6.536536 6.364522 16.857383 0 23.221905C730.715942 448.784814 726.587603 450.332941 722.459264 450.332941L722.459264 450.332941zM722.459264 450.332941c-4.300353 0-8.428691-1.548127-11.69696-4.816395-6.364522-6.364522-6.364522-16.685369 0-23.221905l144.319839-144.319839c6.364522-6.364522 16.857383-6.364522 23.221905 0 6.536536 6.364522 6.536536 16.857383 0 23.221905L733.98421 445.516546C730.715942 448.784814 726.587603 450.332941 722.459264 450.332941L722.459264 450.332941zM1214.247606 809.498404 855.082143 809.498404c-8.944734 0-16.341341-7.224593-16.341341-16.341341 0-9.116748 7.224593-16.341341 16.341341-16.341341l359.165463 0c8.944734 0 16.341341 7.224593 16.341341 16.341341C1230.588947 802.101797 1223.19234 809.498404 1214.247606 809.498404L1214.247606 809.498404zM977.900218 932.316479c-4.300353 0-8.428691-1.720141-11.69696-4.816395l-122.818075-122.818075c-6.364522-6.536536-6.364522-16.685369 0-23.221905 6.536536-6.536536 16.857383-6.536536 23.221905 0l122.990089 122.990089c6.364522 6.364522 6.364522 16.685369 0 23.221905C986.32891 930.596338 982.200571 932.316479 977.900218 932.316479L977.900218 932.316479zM855.082143 809.498404c-4.128339 0-8.428691-1.720141-11.69696-4.816395-6.364522-6.536536-6.364522-16.685369 0-23.221905l122.990089-122.990089c6.536536-6.536536 16.857383-6.536536 23.221905 0 6.364522 6.536536 6.364522 16.685369 0 23.221905l-122.990089 122.990089C863.510835 807.778263 859.210482 809.498404 855.082143 809.498404L855.082143 809.498404zM722.803292 1022.967915C441.732236 1022.967915 213.297497 794.361162 213.297497 513.46212S441.732236 3.956325 722.803292 3.956325c61.92508 0 122.646061 1.032085 180.098774 22.705863 196.956157 74.48211 329.407022 309.281371 329.407022 519.998656 0 9.116748-7.396607 16.341341-16.341341 16.341341-9.116748 0-16.341341-7.224593-16.341341-16.341341 0-196.956157-123.85016-419.542416-308.249286-489.036116-53.840417-20.297665-110.605073-20.641693-168.573828-20.641693-262.837561 0-476.6511 213.985554-476.6511 476.6511 0 262.837561 213.985554 476.6511 476.6511 476.6511 9.116748 0 16.341341 7.224593 16.341341 16.341341C739.144633 1015.571309 731.92004 1022.967915 722.803292 1022.967915L722.803292 1022.967915zM722.803292 1022.967915" p-id="5993"></path></svg>