<?xml version="1.0" standalone="no"?><!DOCTYPE svg PUBLIC "-//W3C//DTD SVG 1.1//EN" "http://www.w3.org/Graphics/SVG/1.1/DTD/svg11.dtd"><svg t="1502019333078" class="icon" style="" viewBox="0 0 1024 1024" version="1.1" xmlns="http://www.w3.org/2000/svg" p-id="1003" xmlns:xlink="http://www.w3.org/1999/xlink" width="200" height="200"><defs><style type="text/css"></style></defs><path d="M776.617261 326.201363c0-145.868205-118.705566-264.481673-264.572748-264.481673-145.868205 0-264.481673 118.613468-264.481673 264.481673 0 107.749026 64.830541 200.647833 157.459195 241.845117C253.901199 622.373807 145.518746 767.064186 145.518746 936.655699c0 12.766768 14.462387 23.178909 32.69668 23.178909 15.719007 0 29.468149-10.413164 29.468149-23.178909 0-190.325743 194.379059-345.158111 329.352123-345.158111 4.435009 0 8.600889-1.266853 12.132318-3.439332C677.561221 570.038858 776.617261 459.482903 776.617261 326.201363L776.617261 326.201363z" p-id="1004"></path><path d="M532.990568 675.573449c0 12.767791 10.413164 25.694195 23.179932 25.694195l288.839431 0c12.767791 0 23.178909-12.927427 23.178909-25.694195s-10.412141-28.208459-23.178909-28.208459L556.1705 647.364991C543.312658 647.363967 532.990568 662.805658 532.990568 675.573449L532.990568 675.573449z" p-id="1005"></path><path d="M845.009931 774.851547 556.1705 774.851547c-12.767791 0-23.179932 14.184047-23.179932 26.951839s10.413164 25.693172 23.179932 25.693172l288.839431 0c12.767791 0 23.178909-12.926404 23.178909-25.693172S857.864704 774.851547 845.009931 774.851547L845.009931 774.851547z" p-id="1006"></path><path d="M845.009931 903.96823 556.1705 903.96823c-12.767791 0-23.179932 14.184047-23.179932 26.951839s10.413164 25.694195 23.179932 25.694195l288.839431 0c12.767791 0 23.178909-12.927427 23.178909-25.694195S857.864704 903.96823 845.009931 903.96823L845.009931 903.96823z" p-id="1007"></path></svg>