<?xml version="1.0" standalone="no"?><!DOCTYPE svg PUBLIC "-//W3C//DTD SVG 1.1//EN" "http://www.w3.org/Graphics/SVG/1.1/DTD/svg11.dtd"><svg t="1502019455654" class="icon" style="" viewBox="0 0 1024 1024" version="1.1" xmlns="http://www.w3.org/2000/svg" p-id="2912" xmlns:xlink="http://www.w3.org/1999/xlink" width="200" height="200"><defs><style type="text/css"></style></defs><path d="M249.250616 623.942a23.272717 23.272717 0 0 1 21.876354-23.272717h312.087131a23.272717 23.272717 0 0 1 0 46.545434H271.12697a23.272717 23.272717 0 0 1-21.876354-23.272717z m0 136.610847a23.272717 23.272717 0 0 0 21.876354 23.272717h405.177997a23.272717 23.272717 0 0 0 0-46.545434H271.12697a23.272717 23.272717 0 0 0-21.876354 23.505444zM907.635771 256.000349v744.726934a23.272717 23.272717 0 0 1-23.272716 23.272717H139.63612a23.272717 23.272717 0 0 1-23.272716-23.272717V23.273182a23.272717 23.272717 0 0 1 23.272716-23.272717h511.999768a23.272717 23.272717 0 0 1 16.523628 6.749088l232.727167 232.727167A23.272717 23.272717 0 0 1 907.635771 256.000349z m-232.727167-23.272717h153.367203L674.908604 79.360429z m186.181734 46.545434h-209.45445a23.272717 23.272717 0 0 1-23.272717-23.272717V46.545899H162.908837v930.908668h698.181501z m-444.043435 195.258093a23.272717 23.272717 0 0 0 16.523629 6.749088h2.094545a23.272717 23.272717 0 0 0 16.523629-6.749088L535.272304 392.378469a23.272717 23.272717 0 0 0-32.81453-32.814531l-44.683616 44.683616V225.51309a23.272717 23.272717 0 0 0-46.545434 0v176.63992l-43.51998-42.589072a23.272717 23.272717 0 0 0-32.814531 32.814531z" p-id="2913"></path></svg>