<?xml version="1.0" standalone="no"?><!DOCTYPE svg PUBLIC "-//W3C//DTD SVG 1.1//EN" "http://www.w3.org/Graphics/SVG/1.1/DTD/svg11.dtd"><svg t="1502019480375" class="icon" style="" viewBox="0 0 1287 1024" version="1.1" xmlns="http://www.w3.org/2000/svg" p-id="4206" xmlns:xlink="http://www.w3.org/1999/xlink" width="251.3671875" height="200"><defs><style type="text/css"></style></defs><path d="M167.221 32h865.8c63.628 0 115.222 53.438 115.222 119.357v119.333h-57.599v-119.333c0-32.959-25.796-59.666-57.623-59.666h-865.799c-31.827 0-57.623 26.707-57.623 59.666v721.286c0 32.959 25.796 59.666 57.623 59.666h865.8c31.826 0 57.623-26.707 57.623-59.666v-119.333h57.599v119.333c0 65.918-51.593 119.357-115.222 119.357h-865.799c-63.629-0.024-115.222-53.463-115.222-119.381v-721.262c0-65.918 51.592-119.357 115.222-119.357zM985.834 326.761c-11.224-11.667-11.224-30.572 0-42.189 11.249-11.667 29.512-11.667 40.762 0l198.739 205.853c5.981 6.202 8.542 14.449 8.172 22.571 0.394 8.148-2.166 16.394-8.172 22.622l-198.739 205.852c-11.25 11.667-29.513 11.667-40.762 0-11.224-11.643-11.224-30.547 0-42.189l151.036-156.427h-415.226c-15.9 0-28.799-13.342-28.799-29.833 0-16.444 12.922-29.833 28.8-29.833h415.225l-151.036-156.427zM385.112 554.030v-96.392h-139.125c-17.821 0-26.707-6.67-26.707-20.109 0-13.391 8.886-20.948 26.707-22.622h112.416l-99.516-158.421c-1.698-1.895-9.722-16.738-9.722-25.132 0-11.717 7.778-23.557 21.858-22.621 11.396 0.739 21.021 7.556 29.119 17.6l111.653 173.484 111.653-173.484c6.45-10.068 16.148-15.901 29.119-17.6 12.923 3.372 20.21 10.929 21.834 22.622 0 5.020-2.438 11.766-7.286 20.109-1.575 1.674-2.388 3.372-2.388 5.021l-99.518 158.421h111.086c16.147 1.674 25.083 9.231 26.707 22.622-1.625 13.439-10.536 20.109-26.707 20.109h-137.768v96.392h137.768c16.147 1.698 25.083 9.231 26.707 22.621-1.625 13.439-10.536 20.109-26.707 20.109h-137.768v195.417c-1.625 16.787-10.536 25.132-26.707 25.132-17.821 0-26.707-8.369-26.707-25.132v-195.416h-139.124c-17.845 0-26.707-6.671-26.707-20.11 0-13.39 8.861-20.947 26.707-22.622h139.125z" fill="#9D9DA9" p-id="4207"></path></svg>