<?xml version="1.0" standalone="no"?><!DOCTYPE svg PUBLIC "-//W3C//DTD SVG 1.1//EN" "http://www.w3.org/Graphics/SVG/1.1/DTD/svg11.dtd"><svg t="1502019400669" class="icon" style="" viewBox="0 0 1024 1024" version="1.1" xmlns="http://www.w3.org/2000/svg" p-id="2228" xmlns:xlink="http://www.w3.org/1999/xlink" width="200" height="200"><defs><style type="text/css"></style></defs><path d="M669.899788 430.701482l0-173.436838c0-37.577982-15.175723-72.265349-40.468596-96.835568-25.292872-25.292872-59.257586-40.468596-96.835568-40.468596L436.48271 119.96048c-37.577982 0-72.265349 15.175723-96.835568 40.468596-25.292872 25.292872-40.468596 59.257586-40.468596 96.835568l0 173.436838L669.899788 430.701482 669.899788 430.701482zM138.026817 430.701482l69.374735 0 0-173.436838c0-62.870854 26.015526-120.683133 67.206775-161.874382 41.191249-41.191249 99.003529-67.206775 161.874382-67.206775l96.112915 0c62.870854 0 120.683133 26.015526 161.874382 67.206775 41.191249 41.191249 67.206775 99.003529 67.206775 161.874382l0 173.436838 69.374735 0c33.964714 0 61.425547 27.460833 61.425547 61.425547l0 95.390261c-37.577982-21.679605-80.937191-33.964714-127.187015-33.964714-140.194778 0-253.651376 113.456598-253.651376 253.651376 0 62.870854 22.402258 119.96048 59.98024 164.042343l-433.592096 0c-33.964714 0-61.425547-27.460833-61.425547-61.425547L76.60127 491.404375C77.323924 458.162315 104.784757 430.701482 138.026817 430.701482L138.026817 430.701482z" p-id="2229"></path><path d="M721.208186 602.693013l87.441073 0 0 50.585745c11.562456 3.613267 23.124912 7.949188 33.242061 13.730416l36.132675-36.132675 61.425547 61.425547-36.132675 36.132675c5.781228 10.839802 10.839802 21.679605 13.730416 33.242061l50.585745 0 0 87.441073-50.585745 0c-3.613267 11.562456-7.949188 23.124912-13.730416 33.242061l36.132675 36.132675-61.425547 61.425547-36.132675-36.132675c-10.839802 5.781228-21.679605 10.839802-33.964714 13.730416l0 50.585745L721.208186 1008.101623l0-50.585745c-11.562456-3.613267-23.124912-7.949188-33.242061-13.730416l-36.132675 36.132675-61.425547-61.425547 36.132675-36.132675c-5.781228-10.839802-10.839802-21.679605-13.730416-33.242061l-50.585745 0 0-87.441073 50.585745 0c3.613267-11.562456 7.949188-23.124912 13.730416-33.242061l-36.132675-36.132675 61.425547-61.425547 36.132675 36.132675c10.839802-5.781228 21.679605-10.839802 33.242061-13.730416L721.208186 602.693013 721.208186 602.693013zM764.567396 736.38391c38.300635 0 69.374735 31.0741 69.374735 69.374735 0 38.300635-31.0741 69.374735-69.374735 69.374735-38.300635 0-69.374735-31.0741-69.374735-69.374735C695.192661 768.180663 726.266761 736.38391 764.567396 736.38391L764.567396 736.38391z" p-id="2230"></path></svg>