<?xml version="1.0" standalone="no"?><!DOCTYPE svg PUBLIC "-//W3C//DTD SVG 1.1//EN" "http://www.w3.org/Graphics/SVG/1.1/DTD/svg11.dtd"><svg t="1502019604980" class="icon" style="" viewBox="0 0 1052 1024" version="1.1" xmlns="http://www.w3.org/2000/svg" p-id="7457" xmlns:xlink="http://www.w3.org/1999/xlink" width="205.46875" height="200"><defs><style type="text/css"></style></defs><path d="M898.40143 869.858558A526.147754 526.147754 0 0 1 154.141515 125.598644 521.364593 521.364593 0 0 1 349.772817 1.953921a23.915807 23.915807 0 1 1 16.02359 44.961718 473.772137 473.772137 0 0 0-177.694446 112.404293 478.31614 478.31614 0 1 0 512.754903-107.142816A23.915807 23.915807 0 0 1 717.837087 7.693715a526.147754 526.147754 0 0 1 180.086026 860.969053zM440.652883 219.587765a23.915807 23.915807 0 0 0 16.980223-6.935584L501.399033 167.929622v325.733292a23.915807 23.915807 0 0 0 47.831614 0V166.733832l45.91835 45.918349a23.915807 23.915807 0 0 0 33.721288-33.721288l-84.661957-84.661956a28.698968 28.698968 0 0 0-28.220653-5.261478 23.915807 23.915807 0 0 0-7.892216 5.261478L423.67266 178.691735a23.915807 23.915807 0 0 0 16.980223 40.89603zM215.605139 678.532102a23.915807 23.915807 0 0 0 23.915807 23.915807h573.979369a23.915807 23.915807 0 0 0 0-47.831614H239.520946a23.915807 23.915807 0 0 0-23.915807 23.915807z" p-id="7458"></path></svg>